<?xml version="1.0" standalone="yes"?>
<svg xmlns="http://www.w3.org/2000/svg" width="1080" height="1080">
<path style="fill:#555455; stroke:none;" d="M0 0L0 1080L1080 1080L1080 0L0 0z"/>
<path style="fill:#ffffff; stroke:none;" d="M22 22L22 1058L1058 1058L1058 22L22 22z"/>
<path style="fill:#fbd55f; stroke:none;" d="M342 158L343 159L342 158z"/>
<path style="fill:#b3a47c; stroke:none;" d="M343.667 158.333L344.333 158.667L343.667 158.333z"/>
<path style="fill:#555455; stroke:none;" d="M568 186C564.688 148.3 503.718 150.49 502 188L423 188C411.886 188 396.797 190.693 386.109 187.682C381.033 186.252 380.105 177.024 377.401 173.001C371.029 163.519 360.422 158.075 349 158.079C311.839 158.091 303.151 213.603 339 224.215C351.658 227.963 365.519 224.455 374.532 214.714C379.239 209.627 380.087 200.367 388.004 200.019C412.564 198.942 437.413 200 462 200C473.217 200 488.125 197.39 498.945 200.318C504.085 201.709 505.392 209.193 508.39 212.999C514.646 220.941 524.827 225.921 535 225.921C546.232 225.921 556.814 220.135 563.2 211C565.67 207.466 566.383 201.342 570.225 199.028C575.92 195.597 588.479 198 595 198L647 198C653.216 198 663.094 196.124 668.856 198.603C673.247 200.493 674.771 209.221 677.61 212.996C685.711 223.773 700.268 227.796 713 224.522C749.759 215.069 743.072 162.545 707 158.287C696.114 157.002 684.191 162.45 677.529 171.004C674.443 174.967 673.05 184.234 667.892 185.682C658.606 188.289 645.646 186 636 186L568 186z"/>
<path style="fill:#b3a47c; stroke:none;" d="M353 158L353 159L356 159L353 158z"/>
<path style="fill:#fbd55f; stroke:none;" d="M356 158L357 159L356 158z"/>
<path style="fill:#b3a47c; stroke:none;" d="M528 158L528 159L531 159L528 158M539 158L539 159L542 159L539 158z"/>
<path style="fill:#fbd55f; stroke:none;" d="M697 158L698 159L697 158z"/>
<path style="fill:#b3a47c; stroke:none;" d="M698.667 158.333L699.333 158.667L698.667 158.333M708 158L708 159L711 159L708 158z"/>
<path style="fill:#fbd55f; stroke:none;" d="M711 158L712 159L711 158z"/>
<path style="fill:#b3a47c; stroke:none;" d="M338.667 159.333L339.333 159.667L338.667 159.333M359 159L360 160L359 159M524.667 159.333L525.333 159.667L524.667 159.333M545 159L546 160L545 159z"/>
<path style="fill:#fbd55f; stroke:none;" d="M693 159L694 160L693 159z"/>
<path style="fill:#b3a47c; stroke:none;" d="M694 159L695 160L694 159M714 159L715 160L714 159z"/>
<path style="fill:#fbd55f; stroke:none;" d="M715 159L716 160L715 159z"/>
<path style="fill:#b3a47c; stroke:none;" d="M336 160L337 161L336 160M362 160L363 161L362 160M522 160L523 161L522 160M548 160L549 161L548 160M691 160L692 161L691 160M717 160L718 161L717 160z"/>
<path style="fill:#fbd55f; stroke:none;" d="M333 161L334 162L333 161z"/>
<path style="fill:#b3a47c; stroke:none;" d="M334 161L335 162L334 161M364 161L365 162L364 161M519 161L520 162L519 161M550 161L551 162L550 161z"/>
<path style="fill:#fbd55f; stroke:none;" d="M688 161L689 162L688 161z"/>
<path style="fill:#b3a47c; stroke:none;" d="M689 161L690 162L689 161M719 161L720 162L719 161M332 162L333 163L332 162M366 162L367 163L366 162M518 162L519 163L518 162M552 162L553 163L552 162M687 162L688 163L687 162M721 162L722 163L721 162M330 163L331 164L330 163M516 163L517 164L516 163M553 163L554 164L553 163M685 163L686 164L685 163M329 164L330 165L329 164M369 164L370 165L369 164M555 164L556 165L555 164M684 164L685 165L684 164M724 164L725 165L724 164M370 165L371 166L370 165z"/>
<path style="fill:#fbd55f; stroke:none;" d="M513 165L514 166L513 165z"/>
<path style="fill:#b3a47c; stroke:none;" d="M556 165L557 166L556 165M725 165L726 166L725 165z"/>
<path style="fill:#fbd55f; stroke:none;" d="M326 166L327 167L326 166z"/>
<path style="fill:#b3a47c; stroke:none;" d="M512 166L513 167L512 166M557 166L558 167L557 166z"/>
<path style="fill:#fbd55f; stroke:none;" d="M681 166L682 167L681 166M325 167L326 168L325 167z"/>
<path style="fill:#b3a47c; stroke:none;" d="M511 167L512 168L511 167M558 167L559 168L558 167z"/>
<path style="fill:#fbd55f; stroke:none;" d="M680 167L681 168L680 167M324 168L325 169L324 168z"/>
<path style="fill:#b3a47c; stroke:none;" d="M510 168L511 169L510 168M559 168L560 169L559 168z"/>
<path style="fill:#fbd55f; stroke:none;" d="M679 168L680 169L679 168z"/>
<path style="fill:#b3a47c; stroke:none;" d="M374 169L375 170L374 169M509 169L510 170L509 169M560 169L561 170L560 169M375 170L376 171L375 170z"/>
<path style="fill:#fbd55f; stroke:none;" d="M508 170L509 171L508 170z"/>
<path style="fill:#b3a47c; stroke:none;" d="M561 170L562 171L561 170M730 170L731 171L730 170M376 171L377 172L376 171M562 171L563 172L562 171M731 171L732 172L731 171M321 172L322 173L321 172M676 172L677 173L676 172z"/>
<path style="fill:#fbd55f; stroke:none;" d="M732 172L733 173L732 172z"/>
<path style="fill:#b3a47c; stroke:none;" d="M320 173L321 174L320 173M506 173L507 174L506 173M675 173L676 174L675 173M378 174L379 175L378 174M564 174L565 175L564 174M733 174L734 175L733 174M319 175L320 176L319 175M344.667 175.333L345.333 175.667L344.667 175.333z"/>
<path style="fill:#ffffff; stroke:none;" d="M346 175.533C325.448 180.038 331.189 212.558 352 208.517C373.08 204.423 367.212 170.884 346 175.533z"/>
<path style="fill:#fbd55f; stroke:none;" d="M352 175L353 176L352 175z"/>
<path style="fill:#b3a47c; stroke:none;" d="M353 175L354 176L353 175M505 175L506 176L505 175M530.667 175.333L531.333 175.667L530.667 175.333z"/>
<path style="fill:#ffffff; stroke:none;" d="M532 175.533C511.467 180.027 517.124 212.571 538 208.517C559.293 204.382 553.002 170.936 532 175.533z"/>
<path style="fill:#fbd55f; stroke:none;" d="M538 175L539 176L538 175z"/>
<path style="fill:#b3a47c; stroke:none;" d="M539 175L540 176L539 175M674 175L675 176L674 175M699.667 175.333L700.333 175.667L699.667 175.333z"/>
<path style="fill:#fbd55f; stroke:none;" d="M701 175L702 176L701 175z"/>
<path style="fill:#ffffff; stroke:none;" d="M702 175.482C680.7 178.979 685.781 212.381 707 208.528C727.945 204.725 722.932 172.046 702 175.482z"/>
<path style="fill:#fbd55f; stroke:none;" d="M707 175L708 176L707 175z"/>
<path style="fill:#b3a47c; stroke:none;" d="M708.667 175.333L709.333 175.667L708.667 175.333M342 176L343 177L342 176M356 176L357 177L356 176M379 176L380 177L379 176M528 176L529 177L528 176z"/>
<path style="fill:#fbd55f; stroke:none;" d="M541 176L542 177L541 176z"/>
<path style="fill:#b3a47c; stroke:none;" d="M542 176L543 177L542 176M565 176L566 177L565 176M697 176L698 177L697 176M711 176L712 177L711 176M734 176L735 177L734 176M318 177L319 178L318 177M340 177L341 178L340 177M358 177L359 178L358 177M504 177L505 178L504 177M526 177L527 178L526 177z"/>
<path style="fill:#fbd55f; stroke:none;" d="M543 177L544 178L543 177z"/>
<path style="fill:#b3a47c; stroke:none;" d="M673 177L674 178L673 177M695 177L696 178L695 177M713 177L714 178L713 177M338 178L339 179L338 178M359 178L360 179L359 178M380 178L381 179L380 178M524 178L525 179L524 178M545 178L546 179L545 178M566 178L567 179L566 178M693 178L694 179L693 178z"/>
<path style="fill:#fbd55f; stroke:none;" d="M714 178L715 179L714 178z"/>
<path style="fill:#b3a47c; stroke:none;" d="M735 178L736 179L735 178M317.333 179.667L317.667 180.333L317.333 179.667M337 179L338 180L337 179M360 179L361 180L360 179M503 179L504 180L503 179M523 179L524 180L523 179M546 179L547 180L546 179z"/>
<path style="fill:#fbd55f; stroke:none;" d="M672 179L673 180L672 179M715 179L716 180L715 179z"/>
<path style="fill:#b3a47c; stroke:none;" d="M336 180L337 181L336 180M361 180L362 181L361 180z"/>
<path style="fill:#fbd55f; stroke:none;" d="M381 180L382 181L381 180z"/>
<path style="fill:#b3a47c; stroke:none;" d="M522 180L523 181L522 180M547 180L548 181L547 180M672 180L673 181L672 180z"/>
<path style="fill:#fbd55f; stroke:none;" d="M716 180L717 181L716 180z"/>
<path style="fill:#b3a47c; stroke:none;" d="M736.333 180.667L736.667 181.333L736.333 180.667M362 181L363 182L362 181M381 181L382 182L381 181M548 181L549 182L548 181M567 181L568 182L567 181M717 181L718 182L717 181M316.333 182.667L316.667 183.333L316.333 182.667M363 182L364 183L363 182M502 182L503 183L502 182M549 182L550 183L549 182M671.333 182.667L671.667 183.333L671.333 182.667z"/>
<path style="fill:#fbd55f; stroke:none;" d="M690 182L691 183L690 182z"/>
<path style="fill:#b3a47c; stroke:none;" d="M718 182L719 183L718 182M334 183L335 184L334 183M520 183L521 184L520 183M689 183L690 184L689 183z"/>
<path style="fill:#fbd55f; stroke:none;" d="M737 183L738 184L737 183z"/>
<path style="fill:#b3a47c; stroke:none;" d="M364 184L365 185L364 184M382.333 184.667L382.667 185.333L382.333 184.667M550 184L551 185L550 184M568.333 184.667L568.667 185.333L568.333 184.667M719 184L720 185L719 184M737.333 184.667L737.667 185.333L737.333 184.667M333 185L334 186L333 185z"/>
<path style="fill:#fbd55f; stroke:none;" d="M501 185L502 186L501 185z"/>
<path style="fill:#b3a47c; stroke:none;" d="M519 185L520 186L519 185z"/>
<path style="fill:#fbd55f; stroke:none;" d="M550 185L551 186L550 185z"/>
<path style="fill:#b3a47c; stroke:none;" d="M688.333 185.667L688.667 186.333L688.333 185.667M365.333 186.667L365.667 187.333L365.333 186.667M501.333 186.667L501.667 187.333L501.333 186.667M720.333 186.667L720.667 187.333L720.333 186.667z"/>
<path style="fill:#fbd55f; stroke:none;" d="M315 187L316 188L315 187M383 187L383 188L501 188L465 187L383 187z"/>
<path style="fill:#b3a47c; stroke:none;" d="M551 187L552 188L551 187M315 188L315 196L316 196L315 188M332 188L332 196L333 196L332 188M518 188L518 191L519 191L518 188z"/>
<path style="fill:#fbd55f; stroke:none;" d="M551 188L552 189L551 188z"/>
<path style="fill:#b3a47c; stroke:none;" d="M687 189L687 195L688 195L687 189M365 191L366 192L365 191z"/>
<path style="fill:#fbd55f; stroke:none;" d="M518.333 191.667L518.667 192.333L518.333 191.667z"/>
<path style="fill:#b3a47c; stroke:none;" d="M518 193L518 196L519 196L518 193z"/>
<path style="fill:#fbd55f; stroke:none;" d="M551 195L552 196L551 195M315 196L316 197L315 196z"/>
<path style="fill:#b3a47c; stroke:none;" d="M551 196L552 197L551 196M720.333 196.667L720.667 197.333L720.333 196.667M688.333 197.667L688.667 198.333L688.333 197.667M333 198L334 199L333 198M519 198L520 199L519 198z"/>
<path style="fill:#fbd55f; stroke:none;" d="M550 198L551 199L550 198z"/>
<path style="fill:#b3a47c; stroke:none;" d="M569 198L569 199L671 199L640 198L569 198M737.333 198.667L737.667 199.333L737.333 198.667M364 199L365 200L364 199M550 199L551 200L550 199z"/>
<path style="fill:#fbd55f; stroke:none;" d="M568 199L569 200L568 199z"/>
<path style="fill:#b3a47c; stroke:none;" d="M671.333 199.667L671.667 200.333L671.333 199.667M719 199L720 200L719 199M316.333 200.667L316.667 201.333L316.333 200.667M334 200L335 201L334 200M382 200L383 201L382 200z"/>
<path style="fill:#fbd55f; stroke:none;" d="M383 200L383 201L502 201L466 200L383 200z"/>
<path style="fill:#b3a47c; stroke:none;" d="M520 200L521 201L520 200z"/>
<path style="fill:#fbd55f; stroke:none;" d="M549 200L550 201L549 200z"/>
<path style="fill:#b3a47c; stroke:none;" d="M689 200L690 201L689 200z"/>
<path style="fill:#fbd55f; stroke:none;" d="M737 200L738 201L737 200z"/>
<path style="fill:#b3a47c; stroke:none;" d="M363 201L364 202L363 201M502 201L503 202L502 201M567.333 201.667L567.667 202.333L567.333 201.667z"/>
<path style="fill:#fbd55f; stroke:none;" d="M671 201L672 202L671 201M690 201L691 202L690 201z"/>
<path style="fill:#b3a47c; stroke:none;" d="M718 201L719 202L718 201M362 202L363 203L362 202M381 202L382 203L381 202M548 202L549 203L548 202M717 202L718 203L717 202M736.333 202.667L736.667 203.333L736.333 202.667M317 203L318 204L317 203M361 203L362 204L361 203z"/>
<path style="fill:#fbd55f; stroke:none;" d="M381 203L382 204L381 203z"/>
<path style="fill:#b3a47c; stroke:none;" d="M522 203L523 204L522 203M547 203L548 204L547 203M672 203L673 204L672 203z"/>
<path style="fill:#fbd55f; stroke:none;" d="M716 203L717 204L716 203M317 204L318 205L317 204z"/>
<path style="fill:#b3a47c; stroke:none;" d="M337 204L338 205L337 204M360 204L361 205L360 204M503 204L504 205L503 204M523 204L524 205L523 204M546 204L547 205L546 204M566.333 204.667L566.667 205.333L566.333 204.667z"/>
<path style="fill:#fbd55f; stroke:none;" d="M672 204L673 205L672 204M715 204L716 205L715 204M339 205L340 206L339 205z"/>
<path style="fill:#b3a47c; stroke:none;" d="M359 205L360 206L359 205M380 205L381 206L380 205M545 205L546 206L545 205z"/>
<path style="fill:#fbd55f; stroke:none;" d="M694 205L695 206L694 205z"/>
<path style="fill:#b3a47c; stroke:none;" d="M714 205L715 206L714 205M735 205L736 206L735 205M318 206L319 207L318 206M340 206L341 207L340 206z"/>
<path style="fill:#fbd55f; stroke:none;" d="M357 206L358 207L357 206z"/>
<path style="fill:#b3a47c; stroke:none;" d="M504 206L505 207L504 206M526 206L527 207L526 206z"/>
<path style="fill:#fbd55f; stroke:none;" d="M543 206L544 207L543 206z"/>
<path style="fill:#b3a47c; stroke:none;" d="M673 206L674 207L673 206M695 206L696 207L695 206M342 207L343 208L342 207M356 207L357 208L356 207M379 207L380 208L379 207z"/>
<path style="fill:#fbd55f; stroke:none;" d="M528 207L529 208L528 207z"/>
<path style="fill:#b3a47c; stroke:none;" d="M542 207L543 208L542 207M565 207L566 208L565 207M697 207L698 208L697 207M711 207L712 208L711 207M734 207L735 208L734 207M319 208L320 209L319 208M344.667 208.333L345.333 208.667L344.667 208.333z"/>
<path style="fill:#fbd55f; stroke:none;" d="M352 208L353 209L352 208z"/>
<path style="fill:#b3a47c; stroke:none;" d="M353 208L354 209L353 208M505 208L506 209L505 208M530.667 208.333L531.333 208.667L530.667 208.333z"/>
<path style="fill:#fbd55f; stroke:none;" d="M538 208L539 209L538 208z"/>
<path style="fill:#b3a47c; stroke:none;" d="M539 208L540 209L539 208M674 208L675 209L674 208M699.667 208.333L700.333 208.667L699.667 208.333z"/>
<path style="fill:#fbd55f; stroke:none;" d="M707 208L708 209L707 208z"/>
<path style="fill:#b3a47c; stroke:none;" d="M708 208L709 209L708 208M378 209L379 210L378 209z"/>
<path style="fill:#fbd55f; stroke:none;" d="M564 209C555.922 224.572 535.361 230.367 520 222.366C514.354 219.425 509.891 211.873 503.961 210.318C494.816 207.92 482.177 211.985 473 213.3C412.138 222.02 352.929 252.908 307 293.286C243.881 348.776 199.221 427.656 193.055 512C191.991 526.557 202.703 534.975 202.985 549C203.204 559.915 192.626 568.606 193.271 578C198.359 652.091 238.091 727.871 291.715 778.741C331.513 816.495 378.243 846.655 431 862.714C455.702 870.234 481.278 871.399 506 878C514.257 862.083 535.448 856.318 551 864.8C558.576 868.932 562.329 878.304 572 876.741C628.297 867.64 679.484 854.744 728 822.921C791.88 781.02 846.783 716.266 868.218 642C873.531 623.592 881.653 599.276 879.941 580.015C879.368 573.559 871.873 568.761 868.992 563C860.717 546.449 868.759 528.728 883 519C879.777 512.093 880.691 506.306 879.871 499C878.55 487.229 876.223 474.607 873.636 463C868.224 438.722 858.221 415.301 847.37 393C808.802 313.731 727.175 247.45 643 222.541C623.662 216.818 602.916 213.008 583 210.209C576.639 209.315 570.325 210.506 564 209z"/>
<path style="fill:#b3a47c; stroke:none;" d="M675 209L676 210L675 209M733 209L734 210L733 209M506 210L507 211L506 210M563 210L564 211L563 210M321 211L322 212L321 211M676 211L677 212L676 211M376 212L377 213L376 212M562 212L563 213L562 212M731 212L732 213L731 212M375 213L376 214L375 213M508 213L509 214L508 213M561 213L562 214L561 213M730 213L731 214L730 213z"/>
<path style="fill:#fbd55f; stroke:none;" d="M323 214L324 215L323 214z"/>
<path style="fill:#b3a47c; stroke:none;" d="M509 214L510 215L509 214M560 214L561 215L560 214z"/>
<path style="fill:#fbd55f; stroke:none;" d="M324 215L325 216L324 215z"/>
<path style="fill:#b3a47c; stroke:none;" d="M510 215L511 216L510 215M559 215L560 216L559 215z"/>
<path style="fill:#fbd55f; stroke:none;" d="M679 215L680 216L679 215M325 216L326 217L325 216z"/>
<path style="fill:#b3a47c; stroke:none;" d="M372 216L373 217L372 216M511 216L512 217L511 216M558 216L559 217L558 216z"/>
<path style="fill:#fbd55f; stroke:none;" d="M680 216L681 217L680 216M326 217L327 218L326 217z"/>
<path style="fill:#b3a47c; stroke:none;" d="M371 217L372 218L371 217M512 217L513 218L512 217M557 217L558 218L557 217M726 217L727 218L726 217M370 218L371 219L370 218M513 218L514 219L513 218M556 218L557 219L556 218M725 218L726 219L725 218M329 219L330 220L329 219M369 219L370 220L369 219z"/>
<path style="fill:#e8995f; stroke:none;" d="M555 219L556 220L555 219z"/>
<path style="fill:#b3a47c; stroke:none;" d="M684 219L685 220L684 219M724 219L725 220L724 219M330 220L331 221L330 220M516 220L517 221L516 220M553 220L554 221L553 220M685 220L686 221L685 220M332 221L333 222L332 221M366 221L367 222L366 221M552 221L553 222L552 221M687 221L688 222L687 221M721 221L722 222L721 221M334 222L335 223L334 222M364 222L365 223L364 222M519.667 222.333L520.333 222.667L519.667 222.333M550 222L551 223L550 222M689 222L690 223L689 222M719 222L720 223L719 222M336 223L337 224L336 223M361 223L362 224L361 223z"/>
<path style="fill:#fbd55f; stroke:none;" d="M362 223L363 224L362 223z"/>
<path style="fill:#b3a47c; stroke:none;" d="M522 223L523 224L522 223M547 223L548 224L547 223M691 223L692 224L691 223M716 223L717 224L716 223z"/>
<path style="fill:#fbd55f; stroke:none;" d="M717 223L718 224L717 223M338 224L339 225L338 224z"/>
<path style="fill:#b3a47c; stroke:none;" d="M339 224L340 225L339 224M358.667 224.333L359.333 224.667L358.667 224.333M524.667 224.333L525.333 224.667L524.667 224.333M544.667 224.333L545.333 224.667L544.667 224.333M694 224L695 225L694 224M713.667 224.333L714.333 224.667L713.667 224.333z"/>
<path style="fill:#fbd55f; stroke:none;" d="M342 225L343 226L342 225z"/>
<path style="fill:#b3a47c; stroke:none;" d="M343 225L343 226L346 226L343 225M353 225L353 226L356 226L353 225M528 225L528 226L531 226L528 225M539 225L539 226L542 226L539 225z"/>
<path style="fill:#fbd55f; stroke:none;" d="M697 225L698 226L697 225z"/>
<path style="fill:#b3a47c; stroke:none;" d="M698 225L698 226L701 226L698 225M708 225L708 226L711 226L708 225z"/>
<path style="fill:#fbd55f; stroke:none;" d="M899.667 328.333L900.333 328.667L899.667 328.333M890 329L891 330L890 329z"/>
<path style="fill:#b3a47c; stroke:none;" d="M891.667 329.333L892.333 329.667L891.667 329.333z"/>
<path style="fill:#555455; stroke:none;" d="M893 581L893 685C871.964 686.848 861.139 711.6 868.268 730C875.18 747.843 895.569 755.44 913 748.536C918.785 746.244 923.748 742.048 927.363 737C937.554 722.767 933.974 702.263 920.999 691.213C917.083 687.878 907.615 686.531 905.603 681.856C900.997 671.153 905 650.672 905 639L905 601C905 596.094 903.636 588.715 905.603 584.144C907.484 579.775 915.31 578.993 919 576.362C928.981 569.247 933.134 558.881 932.996 547C932.873 536.376 927.69 526.833 919 520.638C914.989 517.779 905.77 517.046 904.318 511.891C902.182 504.31 904 493.867 904 486L904 429C904 420.583 901.152 405.929 904.603 398.228C906.407 394.202 913.468 393.687 917 391.637C923.031 388.136 927.913 382.371 930.662 376C938.566 357.683 928.3 335.38 909 330.159C888.826 324.702 868.28 337.905 866.171 359C865.105 369.656 869.024 380.61 877.015 387.815C882.405 392.673 891.618 393.652 891.981 402.001C893.049 426.564 892 451.411 892 476C892 486.95 894.505 501.382 891.682 511.956C890.288 517.178 882.89 518.523 879.001 521.529C872.14 526.833 867.54 534.397 866.3 543C863.826 560.16 874.577 579.381 893 581z"/>
<path style="fill:#b3a47c; stroke:none;" d="M906.667 329.333L907.333 329.667L906.667 329.333z"/>
<path style="fill:#fbd55f; stroke:none;" d="M908 329L909 330L908 329M164 330L165 331L164 330z"/>
<path style="fill:#b3a47c; stroke:none;" d="M165 330L165 331L173 331L165 330z"/>
<path style="fill:#fbd55f; stroke:none;" d="M173 330L174 331L173 330z"/>
<path style="fill:#b3a47c; stroke:none;" d="M888 330L889 331L888 330M910.667 330.333L911.333 330.667L910.667 330.333M159.667 331.333L160.333 331.667L159.667 331.333z"/>
<path style="fill:#555455; stroke:none;" d="M175 583C211.962 577.541 211.165 518.748 173 517L173 438C173 426.812 170.362 411.841 173.318 401.059C174.741 395.868 183.928 395.21 187.996 392.377C197.134 386.013 202.921 375.205 202.921 364C202.921 326.834 147.396 318.157 136.785 354C133.034 366.669 136.55 379.795 146.015 388.957C151.025 393.807 160.638 395.199 160.981 403.004C162.059 427.564 161 452.413 161 477C161 488.217 163.61 503.125 160.682 513.945C159.296 519.069 151.768 520.279 148.001 523.34C140.203 529.677 135.079 539.853 135.079 550C135.079 560.533 140.578 571.186 149 577.387C152.71 580.119 159.546 581.196 161.972 585.225C165.403 590.921 163 603.479 163 610L163 662C163 668.133 164.909 678.119 162.397 683.775C160.418 688.23 151.787 689.583 148.004 692.529C137.331 700.842 133.167 715.137 136.478 728C145.964 764.843 198.221 757.784 202.71 722C204.125 710.723 198.107 698.311 188.999 691.789C185.124 689.014 176.726 687.907 175.318 682.892C172.711 673.606 175 660.646 175 651L175 583z"/>
<path style="fill:#b3a47c; stroke:none;" d="M177.667 331.333L178.333 331.667L177.667 331.333M885 331L886 332L885 331M913 331L914 332L913 331z"/>
<path style="fill:#fbd55f; stroke:none;" d="M156 332L157 333L156 332z"/>
<path style="fill:#b3a47c; stroke:none;" d="M157 332L158 333L157 332M180 332L181 333L180 332z"/>
<path style="fill:#fbd55f; stroke:none;" d="M181 332L182 333L181 332z"/>
<path style="fill:#b3a47c; stroke:none;" d="M883 332L884 333L883 332M915 332L916 333L915 332z"/>
<path style="fill:#fbd55f; stroke:none;" d="M916 332L917 333L916 332z"/>
<path style="fill:#b3a47c; stroke:none;" d="M154 333L155 334L154 333M183 333L184 334L183 333z"/>
<path style="fill:#fbd55f; stroke:none;" d="M881 333L882 334L881 333z"/>
<path style="fill:#b3a47c; stroke:none;" d="M917 333L918 334L917 333M152 334L153 335L152 334M185 334L186 335L185 334M880 334L881 335L880 334z"/>
<path style="fill:#fbd55f; stroke:none;" d="M919 334L920 335L919 334M150 335L151 336L150 335z"/>
<path style="fill:#b3a47c; stroke:none;" d="M187 335L188 336L187 335M920 335L921 336L920 335M149 336L150 337L149 336M188 336L189 337L188 336M877 336L878 337L877 336M921 336L922 337L921 336z"/>
<path style="fill:#fbd55f; stroke:none;" d="M876 337L877 338L876 337z"/>
<path style="fill:#b3a47c; stroke:none;" d="M922 337L923 338L922 337z"/>
<path style="fill:#fbd55f; stroke:none;" d="M191 338L192 339L191 338z"/>
<path style="fill:#b3a47c; stroke:none;" d="M875 338L876 339L875 338M923 338L924 339L923 338z"/>
<path style="fill:#fbd55f; stroke:none;" d="M145 339L146 340L145 339M192 339L193 340L192 339z"/>
<path style="fill:#b3a47c; stroke:none;" d="M874 339L875 340L874 339M924 339L925 340L924 339z"/>
<path style="fill:#fbd55f; stroke:none;" d="M144 340L145 341L144 340z"/>
<path style="fill:#b3a47c; stroke:none;" d="M193 340L194 341L193 340M873 340L874 341L873 340M925 340L926 341L925 340z"/>
<path style="fill:#fbd55f; stroke:none;" d="M143 341L144 342L143 341M194 341L195 342L194 341z"/>
<path style="fill:#b3a47c; stroke:none;" d="M926 341L927 342L926 341z"/>
<path style="fill:#fbd55f; stroke:none;" d="M142 342L143 343L142 342M195 342L196 343L195 342z"/>
<path style="fill:#b3a47c; stroke:none;" d="M871 343L872 344L871 343M141 344L142 345L141 344M196 344L197 345L196 344M928 344L929 345L928 344M140 345L141 346L140 345M197 345L198 346L197 345M870 345L871 346L870 345M899 345L900 346L899 345M869 346L870 347L869 346M893 346L894 347L893 346z"/>
<path style="fill:#fbd55f; stroke:none;" d="M894 346L895 347L894 346z"/>
<path style="fill:#ffffff; stroke:none;" d="M895 346.558C873.739 352.137 884.029 383.967 905 378.308C925.168 372.866 915.294 341.233 895 346.558z"/>
<path style="fill:#b3a47c; stroke:none;" d="M905 346L906 347L905 346M929 346L930 347L929 346M139 347L140 348L139 347M165 347L165 348L173 348L165 347M198 347L199 348L198 347M891 347L892 348L891 347M907 347L908 348L907 347M162 348L163 349L162 348z"/>
<path style="fill:#ffffff; stroke:none;" d="M163 348.703C142.538 355.635 155.121 387.146 175 379.837C195.173 372.421 183.347 341.81 163 348.703z"/>
<path style="fill:#b3a47c; stroke:none;" d="M175 348L176 349L175 348z"/>
<path style="fill:#fbd55f; stroke:none;" d="M868 348L869 349L868 348M890 348L891 349L890 348z"/>
<path style="fill:#b3a47c; stroke:none;" d="M909 348L910 349L909 348M930 348L931 349L930 348M138 349L139 350L138 349M160 349L161 350L160 349M177 349L178 350L177 349M199 349L200 350L199 349M868 349L869 350L868 349M910 349L911 350L910 349z"/>
<path style="fill:#fbd55f; stroke:none;" d="M159 350L160 351L159 350M178 350L179 351L178 350z"/>
<path style="fill:#b3a47c; stroke:none;" d="M887 350L888 351L887 350M911 350L912 351L911 350M931 350L932 351L931 350M137 351L138 352L137 351M200 351L201 352L200 351M867 351L868 352L867 351M912 351L913 352L912 351M156 352L157 353L156 352M181 352L182 353L181 352M913 352L914 353L913 352z"/>
<path style="fill:#fbd55f; stroke:none;" d="M201 353L202 354L201 353M885 353L886 354L885 353z"/>
<path style="fill:#b3a47c; stroke:none;" d="M932.333 353.667L932.667 354.333L932.333 353.667M136 354L137 355L136 354M201 354L202 355L201 354M866 354L866 357L867 357L866 354M914 354L915 355L914 354M154 355L155 356L154 355M183 355L184 356L183 355z"/>
<path style="fill:#fbd55f; stroke:none;" d="M884 355L885 356L884 355z"/>
<path style="fill:#b3a47c; stroke:none;" d="M915 356L916 357L915 356z"/>
<path style="fill:#fbd55f; stroke:none;" d="M135 357L136 358L135 357z"/>
<path style="fill:#b3a47c; stroke:none;" d="M153 357L154 358L153 357M184 357L185 358L184 357z"/>
<path style="fill:#fbd55f; stroke:none;" d="M202 357L203 358L202 357z"/>
<path style="fill:#b3a47c; stroke:none;" d="M883 357L884 358L883 357M135 358L135 361L136 361L135 358M202.333 358.667L202.667 359.333L202.333 358.667z"/>
<path style="fill:#fbd55f; stroke:none;" d="M933 358L934 359L933 358z"/>
<path style="fill:#b3a47c; stroke:none;" d="M152.333 359.667L152.667 360.333L152.333 359.667M916 359L916 365L917 365L916 359M933 359L933 366L934 366L933 359M185 360L186 361L185 360z"/>
<path style="fill:#fbd55f; stroke:none;" d="M152 361L153 362L152 361M185 361L186 362L185 361M185 366L186 367L185 366M933 366L934 367L933 366M152 367L153 368L152 367z"/>
<path style="fill:#b3a47c; stroke:none;" d="M185.333 367.667L185.667 368.333L185.333 367.667M883 367L884 368L883 367M135 368L135 371L136 371L135 368M152 368L153 369L152 368M202 368L202 371L203 371L202 368M866 368L866 371L867 371L866 368M915 368L916 369L915 368z"/>
<path style="fill:#fbd55f; stroke:none;" d="M884 369L885 370L884 369M153 370L154 371L153 370M184 370L185 371L184 370z"/>
<path style="fill:#b3a47c; stroke:none;" d="M884 370L885 371L884 370M914 370L915 371L914 370M932.333 370.667L932.667 371.333L932.333 370.667M153 371L154 372L153 371M184 371L185 372L184 371z"/>
<path style="fill:#fbd55f; stroke:none;" d="M885 371L886 372L885 371M154 372L155 373L154 372M183 372L184 373L183 372z"/>
<path style="fill:#b3a47c; stroke:none;" d="M913 372L914 373L913 372M136.333 373.667L136.667 374.333L136.333 373.667M201.333 373.667L201.667 374.333L201.333 373.667M867 373L868 374L867 373M912 373L913 374L912 373M155 374L156 375L155 374M182 374L183 375L182 374M887 374L888 375L887 374M911 374L912 375L911 374M931 374L932 375L931 374M156 375L157 376L156 375M181 375L182 376L181 375M868 375L869 376L868 375M910 375L911 376L910 375M137 376L138 377L137 376M157 376L158 377L157 376M180 376L181 377L180 376M200.333 376.667L200.667 377.333L200.333 376.667z"/>
<path style="fill:#fbd55f; stroke:none;" d="M868 376L869 377L868 376M890 376L891 377L890 376z"/>
<path style="fill:#b3a47c; stroke:none;" d="M909 376L910 377L909 376M930 376L931 377L930 376z"/>
<path style="fill:#fbd55f; stroke:none;" d="M137 377L138 378L137 377z"/>
<path style="fill:#b3a47c; stroke:none;" d="M158 377L159 378L158 377M179 377L180 378L179 377M891 377L892 378L891 377M907 377L908 378L907 377M869 378L870 379L869 378M893 378L893 379L896 379L893 378M899 378L900 379L899 378z"/>
<path style="fill:#fbd55f; stroke:none;" d="M900 378L901 379L900 378z"/>
<path style="fill:#b3a47c; stroke:none;" d="M905 378L906 379L905 378M929 378L930 379L929 378M138 379L139 380L138 379M161 379L162 380L161 379M176 379L177 380L176 379M199 379L200 380L199 379M870 379L871 380L870 379M163 380L164 381L163 380M169 380L170 381L169 380M173.667 380.333L174.333 380.667L173.667 380.333M928 380L929 381L928 380z"/>
<path style="fill:#fbd55f; stroke:none;" d="M139 381L140 382L139 381z"/>
<path style="fill:#b3a47c; stroke:none;" d="M198 381L199 382L198 381M871 381L872 382L871 381M140 382L141 383L140 382M197 382L198 383L197 382M926 383L927 384L926 383z"/>
<path style="fill:#fbd55f; stroke:none;" d="M141 384L142 385L141 384z"/>
<path style="fill:#b3a47c; stroke:none;" d="M196 384L197 385L196 384M873 384L874 385L873 384M925 384L926 385L925 384M142 385L143 386L142 385M195 385L196 386L195 385M874 385L875 386L874 385M924 385L925 386L924 385M143 386L144 387L143 386M194 386L195 387L194 386M875 386L876 387L875 386M923 386L924 387L923 386M144 387L145 388L144 387z"/>
<path style="fill:#fbd55f; stroke:none;" d="M876 387L877 388L876 387z"/>
<path style="fill:#b3a47c; stroke:none;" d="M922 387L923 388L922 387M145 388L146 389L145 388M192 388L193 389L192 388z"/>
<path style="fill:#fbd55f; stroke:none;" d="M877 388L878 389L877 388z"/>
<path style="fill:#b3a47c; stroke:none;" d="M921 388L922 389L921 388M146 389L147 390L146 389M191 389L192 390L191 389M920 389L921 390L920 389M147 390L148 391L147 390M190 390L191 391L190 390M880 390L881 391L880 390M148 391L149 392L148 391M189 391L190 392L189 391z"/>
<path style="fill:#fbd55f; stroke:none;" d="M881 391L882 392L881 391z"/>
<path style="fill:#b3a47c; stroke:none;" d="M917 391L918 392L917 391M883 392L884 393L883 392M915 392L916 393L915 392M151 393L152 394L151 393M186 393L187 394L186 393M885 393L886 394L885 393M913 393L914 394L913 393M153 394L154 395L153 394M184 394L185 395L184 394M888 394L889 395L888 394M910.667 394.333L911.333 394.667L910.667 394.333M155 395L156 396L155 395M182 395L183 396L182 395M906.667 395.333L907.333 395.667L906.667 395.333z"/>
<path style="fill:#fbd55f; stroke:none;" d="M908 395L909 396L908 395z"/>
<path style="fill:#b3a47c; stroke:none;" d="M158 396L159 397L158 396M179 396L180 397L179 396M891 396L891 515L892 515L892 432L891 396M160 397L161 398L160 397M174 397L174 398L177 398L174 397z"/>
<path style="fill:#fbd55f; stroke:none;" d="M160 398L160 517L161 517L161 434L160 398M173 398L173 516L174 516L174 434L173 398z"/>
<path style="fill:#e8995f; stroke:none;" d="M401.667 407.333L402.333 407.667L401.667 407.333z"/>
<path style="fill:#b3a47c; stroke:none;" d="M403 407.425C385.809 409.793 371.598 421.205 360.769 434.17C355.343 440.665 351.253 451.508 361.015 456.543C369.538 460.938 375.173 453.565 380.374 448C388.22 439.605 399.491 429.331 412 430.225C423.143 431.021 432.869 439.106 440.373 446.627C444.944 451.206 449.626 458.648 457 457.768C475.619 455.544 463.674 437.146 456.827 429.975C442.69 415.17 424.021 404.53 403 407.425z"/>
<path style="fill:#e8995f; stroke:none;" d="M417.667 407.333L418.333 407.667L417.667 407.333M656 407L657 408L656 407z"/>
<path style="fill:#b3a47c; stroke:none;" d="M657 407.428C639.601 409.948 624.616 422.203 613.63 435.286C607.449 442.647 605.335 455.783 618.001 457.721C625.921 458.933 630.823 451.153 635.575 446.17C643.439 437.922 655.654 428.044 668 430.515C678.173 432.552 687.01 439.362 694.112 446.666C698.969 451.661 702.829 459.16 710.999 457.616C728.71 454.268 717.203 437.184 710.127 429.888C695.823 415.141 678.331 404.339 657 407.428z"/>
<path style="fill:#e8995f; stroke:none;" d="M672 407L673 408L672 407M650 408L651 409L650 408M394 409L395 410L394 409z"/>
<path style="fill:#555455; stroke:none;" d="M401 409.464C384.499 412.38 371.45 424.281 360.904 436.576C355.548 442.819 354.237 454.384 365.004 455.466C373.25 456.294 377.872 448.094 383.001 443.004C391.695 434.374 403.177 426.549 416 429.124C426.478 431.228 434.737 438.646 441.985 445.996C446.555 450.631 450.593 456.941 457.996 455.502C474.249 452.345 460.16 435.183 454.13 429.46C439.542 415.615 421.692 405.806 401 409.464M655 409.515C639.021 412.785 625.659 424.008 615.185 436C609.453 442.563 607.126 454.479 619 455.651C626.226 456.365 630.486 448.41 635.004 444.039C643.868 435.465 655.984 426.576 669 428.939C679.098 430.772 688.163 438.53 695.112 445.664C699.902 450.583 703.992 457.527 711.985 455.272C727.162 450.992 712.443 434.407 706.999 429.004C693.213 415.321 674.996 405.422 655 409.515z"/>
<path style="fill:#e8995f; stroke:none;" d="M429 410L430 411L429 410M645 410L646 411L645 410M385 413L386 414L385 413M435 413L436 414L435 413M689 413L690 414L689 413M637 414L638 415L637 414M438 415L439 416L438 415M692 415L693 416L692 415M446 420L447 421L446 420M703 423L704 424L703 423M706 426L707 427L706 426M621 427L622 428L621 427M707 427L708 428L707 427M455 428L456 429L455 428M709 429L710 430L709 429M414 430L415 431L414 430M660 430L661 431L660 430M668 430L669 431L668 430M710 430L711 431L710 430M363 431L364 432L363 431M417 431L418 432L417 431M657 431L658 432L657 431M671 431L672 432L671 431M399 432L400 433L399 432M653 432L654 433L653 432M675 432L676 433L675 432M361 433L362 434L361 433M397 433L398 434L397 433M615 433L616 434L615 433M650 434L651 435L650 434M394 435L395 436L394 435M428 436L429 437L428 436M462 436L463 437L462 436M612 436L613 437L612 436M646 436L647 437L646 436M715 436L716 437L715 436M683 437L684 438L683 437M642 438L643 439L642 438M685 438L686 439L685 438M433 439L434 440L433 439M609 440L610 441L609 440M355 441L356 442L355 441M435 441L436 442L435 441M385 442L386 443L385 442M436 442L437 443L436 442M384 443L385 444L384 443M467.333 444.667L467.667 445.333L467.333 444.667M381 446L382 447L381 446M442 448L443 449L442 448M467 448L468 449L467 448M608 449L609 450L608 449M696 449L697 450L696 449M720 449L721 450L720 449M377 450L378 451L377 450M355 451L356 452L355 451M445 451L446 452L445 451M698 451L699 452L698 451M376 452L377 453L376 452M465 452L466 453L465 452M629 452L630 453L629 452M610 453L611 454L610 453M374 454L375 455L374 454M463 455L464 456L463 455M450 456L451 457L450 456M614 456L615 457L614 456M703 456L704 457L703 456M362 457L363 458L362 457M459 457L460 458L459 457M623 457L624 458L623 457M712 457L713 458L712 457M321 475.478C290.684 481.541 268.527 516.386 285.221 545C297.615 566.245 325.654 575.848 349 570.636C378.484 564.053 402.772 531.372 386.215 502C373.524 479.488 345.575 470.564 321 475.478M727 475.468C694.137 481.625 673.797 519.14 693.104 548C706.043 567.341 731.936 575.014 754 570.755C791.077 563.598 811.281 520.169 783.829 491.039C769.842 476.197 746.55 471.804 727 475.468z"/>
<path style="fill:#fbd55f; stroke:none;" d="M890 515L891 516L890 515z"/>
<path style="fill:#b3a47c; stroke:none;" d="M906.667 515.333L907.333 515.667L906.667 515.333z"/>
<path style="fill:#fbd55f; stroke:none;" d="M908 515L909 516L908 515z"/>
<path style="fill:#b3a47c; stroke:none;" d="M173.667 516.333L174.333 516.667L173.667 516.333z"/>
<path style="fill:#fbd55f; stroke:none;" d="M175 516L176 517L175 516z"/>
<path style="fill:#b3a47c; stroke:none;" d="M888 516L889 517L888 516M910.667 516.333L911.333 516.667L910.667 516.333M158.667 517.333L159.333 517.667L158.667 517.333M178.667 517.333L179.333 517.667L178.667 517.333M885 517L886 518L885 517M913 517L914 518L913 517M156 518L157 519L156 518M181.667 518.333L182.333 518.667L181.667 518.333M883 518L884 519L883 518M915 518L916 519L915 518z"/>
<path style="fill:#fbd55f; stroke:none;" d="M916 518L917 519L916 518M153 519L154 520L153 519z"/>
<path style="fill:#b3a47c; stroke:none;" d="M154 519L155 520L154 519M183 519L184 520L183 519z"/>
<path style="fill:#fbd55f; stroke:none;" d="M184 519L185 520L184 519z"/>
<path style="fill:#b3a47c; stroke:none;" d="M917 519L918 520L917 519M185 520L186 521L185 520M880 520L881 521L880 520z"/>
<path style="fill:#fbd55f; stroke:none;" d="M919 520L920 521L919 520z"/>
<path style="fill:#b3a47c; stroke:none;" d="M150 521L151 522L150 521M187 521L188 522L187 521M920 521L921 522L920 521M877 522L878 523L877 522M921 522L922 523L921 522M147 523L148 524L147 523M190 523L191 524L190 523M876 523L877 524L876 523M922 523L923 524L922 523M146 524L147 525L146 524M191 524L192 525L191 524M875 524L876 525L875 524M923 524L924 525L923 524M145 525L146 526L145 525M192 525L193 526L192 525M874 525L875 526L874 525M924 525L925 526L924 525M144 526L145 527L144 526M193 526L194 527L193 526M873 526L874 527L873 526M925 526L926 527L925 526M143 527L144 528L143 527M194 527L195 528L194 527M926 527L927 528L926 527M142 528L143 529L142 528M195 528L196 529L195 528M871 529L872 530L871 529M928 530L929 531L928 530M140 531L141 532L140 531M197 531L198 532L197 531M896 531L896 532L904 532L896 531M869 532L870 533L869 532M891 534L894 533L891 534z"/>
<path style="fill:#ffffff; stroke:none;" d="M894 532.653C873.616 539.046 885.082 570.878 905 564.146C925.358 557.266 914.633 526.181 894 532.653z"/>
<path style="fill:#fbd55f; stroke:none;" d="M905 532L906 533L905 532z"/>
<path style="fill:#b3a47c; stroke:none;" d="M906 532L907 533L906 532M929 532L930 533L929 532M139 533L140 534L139 533M164 533L165 534L164 533z"/>
<path style="fill:#fbd55f; stroke:none;" d="M165 533L166 534L165 533z"/>
<path style="fill:#ffffff; stroke:none;" d="M166 533.533C145.051 538.125 150.982 570.64 172 566.305C193.097 561.953 186.825 528.969 166 533.533z"/>
<path style="fill:#fbd55f; stroke:none;" d="M172 533L173 534L172 533z"/>
<path style="fill:#b3a47c; stroke:none;" d="M173 533L174 534L173 533M198 533L199 534L198 533z"/>
<path style="fill:#fbd55f; stroke:none;" d="M907 533L908 534L907 533M138 534L139 535L138 534z"/>
<path style="fill:#b3a47c; stroke:none;" d="M161 534L162 535L161 534z"/>
<path style="fill:#fbd55f; stroke:none;" d="M162 534L163 535L162 534z"/>
<path style="fill:#b3a47c; stroke:none;" d="M176 534L177 535L176 534M199 534L200 535L199 534M868 534L869 535L868 534M889 534L890 535L889 534M909 534L910 535L909 534M930 534L931 535L930 534M138 535L139 536L138 535z"/>
<path style="fill:#fbd55f; stroke:none;" d="M160 535L161 536L160 535z"/>
<path style="fill:#b3a47c; stroke:none;" d="M177 535L178 536L177 535M888 535L889 536L888 535z"/>
<path style="fill:#fbd55f; stroke:none;" d="M910 535L911 536L910 535z"/>
<path style="fill:#b3a47c; stroke:none;" d="M158 536L159 537L158 536M200.333 536.667L200.667 537.333L200.333 536.667M887 536L888 537L887 536M931 536L932 537L931 536M137 537L138 538L137 537M157 537L158 538L157 537M180 537L181 538L180 537M867 537L868 538L867 537M886 537L887 538L886 537z"/>
<path style="fill:#fbd55f; stroke:none;" d="M912 537L913 538L912 537z"/>
<path style="fill:#b3a47c; stroke:none;" d="M156 538L157 539L156 538M181 538L182 539L181 538M913 538L914 539L913 538M136.333 539.667L136.667 540.333L136.333 539.667M155 539L156 540L155 539M182 539L183 540L182 539M201.333 539.667L201.667 540.333L201.333 539.667M932.333 539.667L932.667 540.333L932.333 539.667M154.333 540.667L154.667 541.333L154.333 540.667M866.333 540.667L866.667 541.333L866.333 540.667M884 540L885 541L884 540z"/>
<path style="fill:#fbd55f; stroke:none;" d="M914 540L915 541L914 540z"/>
<path style="fill:#b3a47c; stroke:none;" d="M183 541L184 542L183 541M883.333 542.667L883.667 543.333L883.333 542.667M915 542L916 543L915 542M135 543L135 546L136 546L135 543M153 543L154 544L153 543M184 543L185 544L184 543M202.333 543.667L202.667 544.333L202.333 543.667z"/>
<path style="fill:#e8995f; stroke:none;" d="M490 544L491 545L490 544z"/>
<path style="fill:#b3a47c; stroke:none;" d="M491.001 544.597C473.319 548.446 486.423 566.656 493.195 573.675C507.588 588.593 526.755 598.834 548 594.485C564.505 591.107 579.14 578.709 589.535 566C595.571 558.622 597.416 546.427 585 544.355C575.956 542.845 570.589 552.566 564.996 557.961C555.944 566.691 544.929 573.236 531.999 570.887C522.247 569.116 513.96 560.853 507.54 553.827C503.168 549.042 498.343 542.999 491.001 544.597z"/>
<path style="fill:#e8995f; stroke:none;" d="M495.667 544.333L496.333 544.667L495.667 544.333M579 544L580 545L579 544M586 544L587 545L586 544z"/>
<path style="fill:#fbd55f; stroke:none;" d="M933 544L934 545L933 544z"/>
<path style="fill:#b3a47c; stroke:none;" d="M152.333 545.667L152.667 546.333L152.333 545.667M185.333 545.667L185.667 546.333L185.333 545.667z"/>
<path style="fill:#e8995f; stroke:none;" d="M487 545L488 546L487 545M499 545L500 546L499 545z"/>
<path style="fill:#b3a47c; stroke:none;" d="M916 545L916 551L917 551L916 545M933 545L933 552L934 552L933 545z"/>
<path style="fill:#555455; stroke:none;" d="M491.005 546.562C473.703 550.879 492.197 570.412 498 575.961C512.98 590.284 532.618 596.786 553 591.296C567.102 587.497 581.433 574.585 589.725 563C594.524 556.296 592.515 546.063 583 546.109C576.398 546.141 572.206 552.777 567.999 557C559.603 565.43 548.008 575.737 535 573.674C524.193 571.961 515.381 564.663 508.039 557C503.41 552.169 498.796 544.619 491.005 546.562z"/>
<path style="fill:#fbd55f; stroke:none;" d="M152 547L153 548L152 547M185 547L186 548L185 547z"/>
<path style="fill:#e8995f; stroke:none;" d="M574 547L575 548L574 547M502 548L503 549L502 548M573 549L574 550L573 549z"/>
<path style="fill:#fbd55f; stroke:none;" d="M152 552L153 553L152 552M185 552L186 553L185 552M883 552L884 553L883 552M933 552L934 553L933 552z"/>
<path style="fill:#b3a47c; stroke:none;" d="M152.333 553.667L152.667 554.333L152.333 553.667M185.333 553.667L185.667 554.333L185.333 553.667M883 553L884 554L883 553z"/>
<path style="fill:#fbd55f; stroke:none;" d="M915 553L916 554L915 553z"/>
<path style="fill:#b3a47c; stroke:none;" d="M135 554L135 557L136 557L135 554z"/>
<path style="fill:#e8995f; stroke:none;" d="M481 554L482 555L481 554M568 554L569 555L568 554z"/>
<path style="fill:#b3a47c; stroke:none;" d="M915 554L916 555L915 554M202.333 555.667L202.667 556.333L202.333 555.667M866.333 555.667L866.667 556.333L866.333 555.667M884 555L885 556L884 555z"/>
<path style="fill:#fbd55f; stroke:none;" d="M153 556L154 557L153 556z"/>
<path style="fill:#b3a47c; stroke:none;" d="M184 556L185 557L184 556z"/>
<path style="fill:#e8995f; stroke:none;" d="M481 556L482 557L481 556z"/>
<path style="fill:#b3a47c; stroke:none;" d="M914 556L915 557L914 556M932.333 556.667L932.667 557.333L932.333 556.667M885 557L886 558L885 557M154 558L155 559L154 558M183 558L184 559L183 558z"/>
<path style="fill:#fbd55f; stroke:none;" d="M886 558L887 559L886 558z"/>
<path style="fill:#b3a47c; stroke:none;" d="M136.333 559.667L136.667 560.333L136.333 559.667M201.333 559.667L201.667 560.333L201.333 559.667z"/>
<path style="fill:#e8995f; stroke:none;" d="M563 559L564 560L563 559z"/>
<path style="fill:#b3a47c; stroke:none;" d="M867 559L868 560L867 559M912 559L913 560L912 559M155 560L156 561L155 560z"/>
<path style="fill:#e8995f; stroke:none;" d="M562 560L563 561L562 560z"/>
<path style="fill:#b3a47c; stroke:none;" d="M911 560L912 561L911 560M931 560L932 561L931 560M156 561L157 562L156 561M181 561L182 562L181 561z"/>
<path style="fill:#e8995f; stroke:none;" d="M483 561L484 562L483 561z"/>
<path style="fill:#fbd55f; stroke:none;" d="M889 561L890 562L889 561z"/>
<path style="fill:#b3a47c; stroke:none;" d="M137 562L138 563L137 562M157 562L158 563L157 562M180 562L181 563L180 562M200.333 562.667L200.667 563.333L200.333 562.667z"/>
<path style="fill:#e8995f; stroke:none;" d="M592 562L593 563L592 562z"/>
<path style="fill:#b3a47c; stroke:none;" d="M868 562L869 563L868 562M890 562L891 563L890 562M908 562L909 563L908 562M930 562L931 563L930 562M158 563L159 564L158 563M179 563L180 564L179 563z"/>
<path style="fill:#fbd55f; stroke:none;" d="M892 563L893 564L892 563z"/>
<path style="fill:#b3a47c; stroke:none;" d="M907 563L908 564L907 563M138 564L139 565L138 564M160 564L161 565L160 564M177 564L178 565L177 564M869 564L870 565L869 564M894 564L895 565L894 564z"/>
<path style="fill:#fbd55f; stroke:none;" d="M895 564L896 565L895 564z"/>
<path style="fill:#b3a47c; stroke:none;" d="M904 564L905 565L904 564M929 564L930 565L929 564M162 565L163 566L162 565M175 565L176 566L175 565M199 565L200 566L199 565z"/>
<path style="fill:#e8995f; stroke:none;" d="M555 565L556 566L555 565z"/>
<path style="fill:#b3a47c; stroke:none;" d="M139 566L140 567L139 566M164.667 566.333L165.333 566.667L164.667 566.333z"/>
<path style="fill:#fbd55f; stroke:none;" d="M166 566L167 567L166 566M171 566L172 567L171 566z"/>
<path style="fill:#b3a47c; stroke:none;" d="M172.667 566.333L173.333 566.667L172.667 566.333M928 566L929 567L928 566M871 567L872 568L871 567M140 568L141 569L140 568M197 568L198 569L197 568M926 569L927 570L926 569z"/>
<path style="fill:#e8995f; stroke:none;" d="M490 570L491 571L490 570z"/>
<path style="fill:#b3a47c; stroke:none;" d="M873 570L874 571L873 570M925 570L926 571L925 570M142 571L143 572L142 571M195 571L196 572L195 571z"/>
<path style="fill:#e8995f; stroke:none;" d="M535 571L535 572L538 572L535 571M539 571L540 572L539 571z"/>
<path style="fill:#b3a47c; stroke:none;" d="M874 571L875 572L874 571M924 571L925 572L924 571M143 572L144 573L143 572M194 572L195 573L194 572z"/>
<path style="fill:#e8995f; stroke:none;" d="M583 572L584 573L583 572z"/>
<path style="fill:#b3a47c; stroke:none;" d="M875 572L876 573L875 572M923 572L924 573L923 572M144 573L145 574L144 573M193 573L194 574L193 573z"/>
<path style="fill:#e8995f; stroke:none;" d="M582 573L583 574L582 573z"/>
<path style="fill:#b3a47c; stroke:none;" d="M876 573L877 574L876 573M922 573L923 574L922 573M145 574L146 575L145 574M192 574L193 575L192 574z"/>
<path style="fill:#e8995f; stroke:none;" d="M581 574L582 575L581 574z"/>
<path style="fill:#b3a47c; stroke:none;" d="M877 574L878 575L877 574M921 574L922 575L921 574M146 575L147 576L146 575M191 575L192 576L191 575z"/>
<path style="fill:#e8995f; stroke:none;" d="M495 575L496 576L495 575z"/>
<path style="fill:#b3a47c; stroke:none;" d="M920 575L921 576L920 575z"/>
<path style="fill:#fbd55f; stroke:none;" d="M147 576L148 577L147 576z"/>
<path style="fill:#b3a47c; stroke:none;" d="M190 576L191 577L190 576M880 576L881 577L880 576z"/>
<path style="fill:#e8995f; stroke:none;" d="M497 577L498 578L497 577z"/>
<path style="fill:#fbd55f; stroke:none;" d="M881 577L882 578L881 577z"/>
<path style="fill:#b3a47c; stroke:none;" d="M917 577L918 578L917 577M150 578L151 579L150 578M187 578L188 579L187 578z"/>
<path style="fill:#e8995f; stroke:none;" d="M498 578L499 579L498 578z"/>
<path style="fill:#b3a47c; stroke:none;" d="M883 578L884 579L883 578M915 578L916 579L915 578M152 579L153 580L152 579z"/>
<path style="fill:#fbd55f; stroke:none;" d="M186 579L187 580L186 579z"/>
<path style="fill:#b3a47c; stroke:none;" d="M885 579L886 580L885 579M913 579L914 580L913 579z"/>
<path style="fill:#fbd55f; stroke:none;" d="M153 580L154 581L153 580z"/>
<path style="fill:#b3a47c; stroke:none;" d="M184 580L185 581L184 580z"/>
<path style="fill:#e8995f; stroke:none;" d="M500 580L501 581L500 580z"/>
<path style="fill:#b3a47c; stroke:none;" d="M888 580L889 581L888 580M910.667 580.333L911.333 580.667L910.667 580.333z"/>
<path style="fill:#fbd55f; stroke:none;" d="M155 581L156 582L155 581z"/>
<path style="fill:#b3a47c; stroke:none;" d="M156 581L157 582L156 581M181.667 581.333L182.333 581.667L181.667 581.333M891.667 581.333L892.333 581.667L891.667 581.333M906.667 581.333L907.333 581.667L906.667 581.333z"/>
<path style="fill:#fbd55f; stroke:none;" d="M908 581L909 582L908 581z"/>
<path style="fill:#b3a47c; stroke:none;" d="M158.667 582.333L159.333 582.667L158.667 582.333M178.667 582.333L179.333 582.667L178.667 582.333z"/>
<path style="fill:#e8995f; stroke:none;" d="M503 582L504 583L503 582z"/>
<path style="fill:#b3a47c; stroke:none;" d="M905 582L905 684L906 684L906 613L905 582M175 583L176 584L175 583z"/>
<path style="fill:#fbd55f; stroke:none;" d="M176 583L177 584L176 583z"/>
<path style="fill:#b3a47c; stroke:none;" d="M162 584L162 686L163 686L163 615L162 584z"/>
<path style="fill:#e8995f; stroke:none;" d="M568 585L569 586L568 585M508 586L509 587L508 586M558 590L559 591L558 590M526 594L527 595L526 594M548 594L549 595L548 594z"/>
<path style="fill:#fbd55f; stroke:none;" d="M890 684L891 685L890 684z"/>
<path style="fill:#b3a47c; stroke:none;" d="M891.667 684.333L892.333 684.667L891.667 684.333M906.667 684.333L907.333 684.667L906.667 684.333z"/>
<path style="fill:#fbd55f; stroke:none;" d="M908 684L909 685L908 684z"/>
<path style="fill:#b3a47c; stroke:none;" d="M888 685L889 686L888 685M910.667 685.333L911.333 685.667L910.667 685.333M159.667 686.333L160.333 686.667L159.667 686.333M177.667 686.333L178.333 686.667L177.667 686.333M885 686L886 687L885 686M913 686L914 687L913 686z"/>
<path style="fill:#fbd55f; stroke:none;" d="M156 687L157 688L156 687z"/>
<path style="fill:#b3a47c; stroke:none;" d="M157 687L158 688L157 687M180 687L181 688L180 687z"/>
<path style="fill:#fbd55f; stroke:none;" d="M181 687L182 688L181 687z"/>
<path style="fill:#b3a47c; stroke:none;" d="M883 687L884 688L883 687M915 687L916 688L915 687z"/>
<path style="fill:#fbd55f; stroke:none;" d="M916 687L917 688L916 687z"/>
<path style="fill:#b3a47c; stroke:none;" d="M154 688L155 689L154 688M183 688L184 689L183 688z"/>
<path style="fill:#fbd55f; stroke:none;" d="M881 688L882 689L881 688z"/>
<path style="fill:#b3a47c; stroke:none;" d="M917 688L918 689L917 688M152 689L153 690L152 689M185 689L186 690L185 689M880 689L881 690L880 689z"/>
<path style="fill:#fbd55f; stroke:none;" d="M919 689L920 690L919 689M150 690L151 691L150 690z"/>
<path style="fill:#b3a47c; stroke:none;" d="M187 690L188 691L187 690M920 690L921 691L920 690M149 691L150 692L149 691M188 691L189 692L188 691M877 691L878 692L877 691M921 691L922 692L921 691z"/>
<path style="fill:#fbd55f; stroke:none;" d="M876 692L877 693L876 692z"/>
<path style="fill:#b3a47c; stroke:none;" d="M922 692L923 693L922 692z"/>
<path style="fill:#fbd55f; stroke:none;" d="M191 693L192 694L191 693z"/>
<path style="fill:#b3a47c; stroke:none;" d="M875 693L876 694L875 693M923 693L924 694L923 693z"/>
<path style="fill:#fbd55f; stroke:none;" d="M145 694L146 695L145 694M192 694L193 695L192 694z"/>
<path style="fill:#b3a47c; stroke:none;" d="M874 694L875 695L874 694M924 694L925 695L924 694z"/>
<path style="fill:#fbd55f; stroke:none;" d="M144 695L145 696L144 695z"/>
<path style="fill:#b3a47c; stroke:none;" d="M193 695L194 696L193 695M873 695L874 696L873 695M925 695L926 696L925 695z"/>
<path style="fill:#fbd55f; stroke:none;" d="M143 696L144 697L143 696M194 696L195 697L194 696z"/>
<path style="fill:#b3a47c; stroke:none;" d="M926 696L927 697L926 696z"/>
<path style="fill:#fbd55f; stroke:none;" d="M142 697L143 698L142 697M195 697L196 698L195 697z"/>
<path style="fill:#b3a47c; stroke:none;" d="M871 698L872 699L871 698M141 699L142 700L141 699M196 699L197 700L196 699M928 699L929 700L928 699M140 700L141 701L140 700M197 700L198 701L197 700M870 700L871 701L870 700M899 700L900 701L899 700M869 701L870 702L869 701M893 701L894 702L893 701z"/>
<path style="fill:#fbd55f; stroke:none;" d="M894 701L895 702L894 701z"/>
<path style="fill:#ffffff; stroke:none;" d="M895 701.558C873.81 707.118 884.118 739.895 905 733.347C925.015 727.071 915.258 696.242 895 701.558z"/>
<path style="fill:#b3a47c; stroke:none;" d="M905 701L906 702L905 701M929 701L930 702L929 701M139 702L140 703L139 702M165 702L165 703L173 703L165 702M198 702L199 703L198 702M891 702L892 703L891 702M907 702L908 703L907 702M162 703L163 704L162 703z"/>
<path style="fill:#ffffff; stroke:none;" d="M163 703.703C143.147 710.429 154.339 741.355 174 735.196C195.044 728.604 184.063 696.567 163 703.703z"/>
<path style="fill:#b3a47c; stroke:none;" d="M175 703L176 704L175 703z"/>
<path style="fill:#fbd55f; stroke:none;" d="M868 703L869 704L868 703M890 703L891 704L890 703z"/>
<path style="fill:#b3a47c; stroke:none;" d="M909 703L910 704L909 703M930 703L931 704L930 703M138 704L139 705L138 704M160 704L161 705L160 704M177 704L178 705L177 704M199 704L200 705L199 704M868 704L869 705L868 704M910 704L911 705L910 704z"/>
<path style="fill:#fbd55f; stroke:none;" d="M159 705L160 706L159 705M178 705L179 706L178 705z"/>
<path style="fill:#b3a47c; stroke:none;" d="M887 705L888 706L887 705M911 705L912 706L911 705M931 705L932 706L931 705M137 706L138 707L137 706M200 706L201 707L200 706M867 706L868 707L867 706M912 706L913 707L912 706M156 707L157 708L156 707M181 707L182 708L181 707M913 707L914 708L913 707z"/>
<path style="fill:#fbd55f; stroke:none;" d="M201 708L202 709L201 708M885 708L886 709L885 708z"/>
<path style="fill:#b3a47c; stroke:none;" d="M932.333 708.667L932.667 709.333L932.333 708.667M136 709L137 710L136 709M201 709L202 710L201 709M866 709L866 712L867 712L866 709M914 709L915 710L914 709M154 710L155 711L154 710M183 710L184 711L183 710z"/>
<path style="fill:#fbd55f; stroke:none;" d="M884 710L885 711L884 710z"/>
<path style="fill:#b3a47c; stroke:none;" d="M915 711L916 712L915 711z"/>
<path style="fill:#fbd55f; stroke:none;" d="M135 712L136 713L135 712z"/>
<path style="fill:#b3a47c; stroke:none;" d="M153 712L154 713L153 712M184 712L185 713L184 712z"/>
<path style="fill:#fbd55f; stroke:none;" d="M202 712L203 713L202 712z"/>
<path style="fill:#b3a47c; stroke:none;" d="M883 712L884 713L883 712M135 713L135 716L136 716L135 713M202.333 713.667L202.667 714.333L202.333 713.667z"/>
<path style="fill:#fbd55f; stroke:none;" d="M933 713L934 714L933 713z"/>
<path style="fill:#b3a47c; stroke:none;" d="M152.333 714.667L152.667 715.333L152.333 714.667M916 714L916 720L917 720L916 714M933 714L933 721L934 721L933 714M185 715L186 716L185 715z"/>
<path style="fill:#fbd55f; stroke:none;" d="M152 716L153 717L152 716M185 716L186 717L185 716M185 721L186 722L185 721M933 721L934 722L933 721M152 722L153 723L152 722z"/>
<path style="fill:#b3a47c; stroke:none;" d="M185.333 722.667L185.667 723.333L185.333 722.667M883 722L884 723L883 722M135 723L135 726L136 726L135 723M152 723L153 724L152 723M202 723L202 726L203 726L202 723M866 723L866 726L867 726L866 723M915 723L916 724L915 723z"/>
<path style="fill:#fbd55f; stroke:none;" d="M884 724L885 725L884 724M153 725L154 726L153 725M184 725L185 726L184 725z"/>
<path style="fill:#b3a47c; stroke:none;" d="M884 725L885 726L884 725M914 725L915 726L914 725M932.333 725.667L932.667 726.333L932.333 725.667M153 726L154 727L153 726M184 726L185 727L184 726z"/>
<path style="fill:#fbd55f; stroke:none;" d="M885 726L886 727L885 726M154 727L155 728L154 727M183 727L184 728L183 727z"/>
<path style="fill:#b3a47c; stroke:none;" d="M913 727L914 728L913 727M136.333 728.667L136.667 729.333L136.333 728.667M201.333 728.667L201.667 729.333L201.333 728.667M867 728L868 729L867 728M912 728L913 729L912 728M155 729L156 730L155 729M182 729L183 730L182 729M887 729L888 730L887 729M911 729L912 730L911 729M931 729L932 730L931 729M156 730L157 731L156 730M181 730L182 731L181 730M868 730L869 731L868 730M910 730L911 731L910 730M137 731L138 732L137 731M157 731L158 732L157 731M180 731L181 732L180 731M200.333 731.667L200.667 732.333L200.333 731.667z"/>
<path style="fill:#fbd55f; stroke:none;" d="M868 731L869 732L868 731M890 731L891 732L890 731z"/>
<path style="fill:#b3a47c; stroke:none;" d="M909 731L910 732L909 731M930 731L931 732L930 731z"/>
<path style="fill:#fbd55f; stroke:none;" d="M137 732L138 733L137 732z"/>
<path style="fill:#b3a47c; stroke:none;" d="M158 732L159 733L158 732M179 732L180 733L179 732M891 732L892 733L891 732M907 732L908 733L907 732M869 733L870 734L869 733M893 733L894 734L893 733z"/>
<path style="fill:#fbd55f; stroke:none;" d="M894 733L895 734L894 733z"/>
<path style="fill:#b3a47c; stroke:none;" d="M905 733L906 734L905 733M929 733L930 734L929 733M138 734L139 735L138 734M161 734L162 735L161 734M176 734L177 735L176 734M199 734L200 735L199 734M870 734L871 735L870 734M899 734L900 735L899 734M163.667 735.333L164.333 735.667L163.667 735.333M173.667 735.333L174.333 735.667L173.667 735.333M928 735L929 736L928 735z"/>
<path style="fill:#fbd55f; stroke:none;" d="M139 736L140 737L139 736z"/>
<path style="fill:#b3a47c; stroke:none;" d="M198 736L199 737L198 736M871 736L872 737L871 736M140 737L141 738L140 737M197 737L198 738L197 737M926 738L927 739L926 738z"/>
<path style="fill:#fbd55f; stroke:none;" d="M141 739L142 740L141 739z"/>
<path style="fill:#b3a47c; stroke:none;" d="M196 739L197 740L196 739M873 739L874 740L873 739M925 739L926 740L925 739M142 740L143 741L142 740M195 740L196 741L195 740M874 740L875 741L874 740M924 740L925 741L924 740M143 741L144 742L143 741M194 741L195 742L194 741M875 741L876 742L875 741M923 741L924 742L923 741M144 742L145 743L144 742z"/>
<path style="fill:#fbd55f; stroke:none;" d="M876 742L877 743L876 742z"/>
<path style="fill:#b3a47c; stroke:none;" d="M922 742L923 743L922 742M145 743L146 744L145 743M192 743L193 744L192 743z"/>
<path style="fill:#fbd55f; stroke:none;" d="M877 743L878 744L877 743z"/>
<path style="fill:#b3a47c; stroke:none;" d="M921 743L922 744L921 743M146 744L147 745L146 744M191 744L192 745L191 744M920 744L921 745L920 744M147 745L148 746L147 745M190 745L191 746L190 745M880 745L881 746L880 745M148 746L149 747L148 746M189 746L190 747L189 746z"/>
<path style="fill:#fbd55f; stroke:none;" d="M881 746L882 747L881 746z"/>
<path style="fill:#b3a47c; stroke:none;" d="M917 746L918 747L917 746M883 747L884 748L883 747M915 747L916 748L915 747M151 748L152 749L151 748M186 748L187 749L186 748M885 748L886 749L885 748M913 748L914 749L913 748M153 749L154 750L153 749M184 749L185 750L184 749M888 749L889 750L888 749M910.667 749.333L911.333 749.667L910.667 749.333M155 750L156 751L155 750M182 750L183 751L182 750M891.667 750.333L892.333 750.667L891.667 750.333M906.667 750.333L907.333 750.667L906.667 750.333z"/>
<path style="fill:#fbd55f; stroke:none;" d="M908 750L909 751L908 750z"/>
<path style="fill:#b3a47c; stroke:none;" d="M158 751L159 752L158 751M179 751L180 752L179 751z"/>
<path style="fill:#fbd55f; stroke:none;" d="M899.667 751.333L900.333 751.667L899.667 751.333z"/>
<path style="fill:#b3a47c; stroke:none;" d="M161 752L161 753L164 753L161 752M174 752L174 753L177 753L174 752z"/>
<path style="fill:#fbd55f; stroke:none;" d="M341 861L342 862L341 861z"/>
<path style="fill:#b3a47c; stroke:none;" d="M342.667 861.333L343.333 861.667L342.667 861.333z"/>
<path style="fill:#555455; stroke:none;" d="M503 903C508.282 938.235 562.946 934.716 568 901L636 901C645.711 901 658.573 898.76 667.942 901.318C673.352 902.795 675.052 912.808 678.519 916.91C686.519 926.376 699.111 929.455 711 927.699C749.723 921.98 743.873 864.8 707 861.171C695.704 860.058 684.436 865.067 677.529 874.001C674.464 877.966 673.037 887.238 667.892 888.682C658.606 891.289 645.646 889 636 889L568 889C566.451 871.374 549.034 859.473 532 861.171C522.076 862.16 513.496 866.82 507.637 875C504.587 879.26 503.396 889.193 497.942 890.682C488.004 893.397 474.305 891 464 891C439.669 891 415.331 891.167 391 890.999C379.923 890.923 380.913 879.238 374.671 872.04C365.64 861.626 349.656 858.584 337 863.243C297.087 877.936 319.388 939.426 360 926.779C367.034 924.589 372.952 919.973 377.211 914C379.29 911.084 380.372 906.042 383.418 904.028C390.916 899.071 412.047 903 421 903L503 903z"/>
<path style="fill:#b3a47c; stroke:none;" d="M354 861L354 862L357 862L354 861M527 861L527 862L530 862L527 861M541.667 861.333L542.333 861.667L541.667 861.333z"/>
<path style="fill:#fbd55f; stroke:none;" d="M696 861L697 862L696 861z"/>
<path style="fill:#b3a47c; stroke:none;" d="M697.667 861.333L698.333 861.667L697.667 861.333M709 861L709 862L712 862L709 861M338 862L339 863L338 862M359.667 862.333L360.333 862.667L359.667 862.333M524 862L525 863L524 862M545.667 862.333L546.333 862.667L545.667 862.333M693 862L694 863L693 862M714.667 862.333L715.333 862.667L714.667 862.333z"/>
<path style="fill:#fbd55f; stroke:none;" d="M335 863L336 864L335 863z"/>
<path style="fill:#b3a47c; stroke:none;" d="M336 863L337 864L336 863M362 863L363 864L362 863M521 863L522 864L521 863M548 863L549 864L548 863z"/>
<path style="fill:#fbd55f; stroke:none;" d="M690 863L691 864L690 863z"/>
<path style="fill:#b3a47c; stroke:none;" d="M691 863L692 864L691 863M717 863L718 864L717 863M333 864L334 865L333 864M364 864L365 865L364 864z"/>
<path style="fill:#fbd55f; stroke:none;" d="M365 864L366 865L365 864z"/>
<path style="fill:#b3a47c; stroke:none;" d="M519 864L520 865L519 864M550 864L551 865L550 864M688 864L689 865L688 864M719 864L720 865L719 864z"/>
<path style="fill:#fbd55f; stroke:none;" d="M720 864L721 865L720 864M331 865L332 866L331 865z"/>
<path style="fill:#b3a47c; stroke:none;" d="M366 865L367 866L366 865M517 865L518 866L517 865M552 865L553 866L552 865z"/>
<path style="fill:#fbd55f; stroke:none;" d="M686 865L687 866L686 865z"/>
<path style="fill:#b3a47c; stroke:none;" d="M721 865L722 866L721 865M330 866L331 867L330 866M368 866L369 867L368 866M554 866L555 867L554 866M685 866L686 867L685 866M723 866L724 867L723 866M369 867L370 868L369 867M514 867L515 868L514 867M555 867L556 868L555 867M724 867L725 868L724 867M327 868L328 869L327 868M513 868L514 869L513 868M682 868L683 869L682 868M326 869L327 870L326 869M512 869L513 870L512 869M681 869L682 870L681 869M325 870L326 871L325 870M511 870L512 871L511 870M680 870L681 871L680 870z"/>
<path style="fill:#fbd55f; stroke:none;" d="M728 870L729 871L728 870z"/>
<path style="fill:#b3a47c; stroke:none;" d="M324 871L325 872L324 871M510 871L511 872L510 871M679 871L680 872L679 871M323 872L324 873L323 872M509 872L510 873L509 872M678 872L679 873L678 872z"/>
<path style="fill:#fbd55f; stroke:none;" d="M322 873L323 874L322 873z"/>
<path style="fill:#b3a47c; stroke:none;" d="M508 873L509 874L508 873M376 874L377 875L376 874M507 874L508 875L507 874M562 874L563 875L562 874M731 874L732 875L731 874M321 875L322 876L321 875M377 875L378 876L377 875M676 875L677 876L676 875M732 875L733 876L732 875M320 876L321 877L320 876M506 876L507 877L506 876M675 876L676 877L675 876M378 877L379 878L378 877M564 877L565 878L564 877M733 877L734 878L733 877M319 878L320 879L319 878M343.667 878.333L344.333 878.667L343.667 878.333z"/>
<path style="fill:#ffffff; stroke:none;" d="M345 878.558C323.615 884.134 333.488 917.103 355 910.347C374.052 904.364 364.799 873.395 345 878.558z"/>
<path style="fill:#fbd55f; stroke:none;" d="M353 878L354 879L353 878z"/>
<path style="fill:#b3a47c; stroke:none;" d="M354 878L355 879L354 878M505 878L506 879L505 878M529.667 878.333L530.333 878.667L529.667 878.333z"/>
<path style="fill:#ffffff; stroke:none;" d="M531 878.558C509.581 884.143 519.261 917.174 541 910.347C560.629 904.183 550.532 873.465 531 878.558z"/>
<path style="fill:#fbd55f; stroke:none;" d="M539 878L540 879L539 878z"/>
<path style="fill:#b3a47c; stroke:none;" d="M540 878L541 879L540 878M674 878L675 879L674 878M699 878L700 879L699 878z"/>
<path style="fill:#ffffff; stroke:none;" d="M700 878.558C678.665 884.121 688.659 917.041 710 910.347C729.838 904.125 719.668 873.429 700 878.558z"/>
<path style="fill:#fbd55f; stroke:none;" d="M708 878L709 879L708 878z"/>
<path style="fill:#b3a47c; stroke:none;" d="M709 878L710 879L709 878z"/>
<path style="fill:#fbd55f; stroke:none;" d="M734 878L735 879L734 878z"/>
<path style="fill:#b3a47c; stroke:none;" d="M341 879L342 880L341 879M356 879L357 880L356 879M379 879L380 880L379 879z"/>
<path style="fill:#fbd55f; stroke:none;" d="M504 879L505 880L504 879z"/>
<path style="fill:#b3a47c; stroke:none;" d="M527 879L528 880L527 879M542 879L543 880L542 879M565 879L566 880L565 879M696 879L697 880L696 879M711 879L712 880L711 879M734 879L735 880L734 879M318 880L319 881L318 880z"/>
<path style="fill:#fbd55f; stroke:none;" d="M340 880L341 881L340 880z"/>
<path style="fill:#b3a47c; stroke:none;" d="M358 880L359 881L358 880M504 880L505 881L504 880z"/>
<path style="fill:#fbd55f; stroke:none;" d="M526 880L527 881L526 880z"/>
<path style="fill:#b3a47c; stroke:none;" d="M544 880L545 881L544 880M673 880L674 881L673 880M695 880L696 881L695 880M713 880L714 881L713 880M338 881L339 882L338 881M359 881L360 882L359 881M380 881L381 882L380 881M524 881L525 882L524 881M545 881L546 882L545 881M566 881L567 882L566 881z"/>
<path style="fill:#fbd55f; stroke:none;" d="M714 881L715 882L714 881z"/>
<path style="fill:#b3a47c; stroke:none;" d="M735 881L736 882L735 881M317.333 882.667L317.667 883.333L317.333 882.667M337 882L338 883L337 882M503 882L504 883L503 882M523 882L524 883L523 882z"/>
<path style="fill:#fbd55f; stroke:none;" d="M546 882L547 883L546 882z"/>
<path style="fill:#b3a47c; stroke:none;" d="M672.333 882.667L672.667 883.333L672.333 882.667M692 882L693 883L692 882M336 883L337 884L336 883M381.333 883.667L381.667 884.333L381.333 883.667M522 883L523 884L522 883z"/>
<path style="fill:#fbd55f; stroke:none;" d="M547 883L548 884L547 883z"/>
<path style="fill:#b3a47c; stroke:none;" d="M691 883L692 884L691 883M736.333 883.667L736.667 884.333L736.333 883.667z"/>
<path style="fill:#fbd55f; stroke:none;" d="M362 884L363 885L362 884M502 884L503 885L502 884z"/>
<path style="fill:#b3a47c; stroke:none;" d="M521 884L522 885L521 884M548 884L549 885L548 884M567 884L568 885L567 884z"/>
<path style="fill:#fbd55f; stroke:none;" d="M717 884L718 885L717 884z"/>
<path style="fill:#b3a47c; stroke:none;" d="M316.333 885.667L316.667 886.333L316.333 885.667M363 885L364 886L363 885M502 885L503 886L502 885M549 885L550 886L549 885M671.333 885.667L671.667 886.333L671.333 885.667M718 885L719 886L718 885M334 886L335 887L334 886z"/>
<path style="fill:#fbd55f; stroke:none;" d="M382 886L383 887L382 886z"/>
<path style="fill:#b3a47c; stroke:none;" d="M520 886L521 887L520 886M689 886L690 887L689 886z"/>
<path style="fill:#fbd55f; stroke:none;" d="M737 886L738 887L737 886z"/>
<path style="fill:#b3a47c; stroke:none;" d="M364 887L365 888L364 887M382.333 887.667L382.667 888.333L382.333 887.667M550 887L551 888L550 887M568.333 887.667L568.667 888.333L568.333 887.667M719 887L720 888L719 887M737.333 887.667L737.667 888.333L737.333 887.667M333 888L334 889L333 888M519 888L520 889L519 888z"/>
<path style="fill:#fbd55f; stroke:none;" d="M569 888L569 889L671 889L640 888L569 888z"/>
<path style="fill:#b3a47c; stroke:none;" d="M688 888L689 889L688 888M365.333 889.667L365.667 890.333L365.333 889.667M501 889L502 890L501 889z"/>
<path style="fill:#fbd55f; stroke:none;" d="M688 889L689 890L688 889z"/>
<path style="fill:#b3a47c; stroke:none;" d="M720 889L721 890L720 889z"/>
<path style="fill:#fbd55f; stroke:none;" d="M315 890L316 891L315 890z"/>
<path style="fill:#b3a47c; stroke:none;" d="M383 890L383 891L501 891L465 890L383 890M518 890L518 894L519 894L518 890M551 890L552 891L551 890z"/>
<path style="fill:#fbd55f; stroke:none;" d="M720 890L721 891L720 890z"/>
<path style="fill:#b3a47c; stroke:none;" d="M315 891L315 899L316 899L315 891M332 891L332 899L333 899L332 891M687 892L687 898L688 898L687 892z"/>
<path style="fill:#fbd55f; stroke:none;" d="M365 893L366 894L365 893z"/>
<path style="fill:#b3a47c; stroke:none;" d="M365 894L366 895L365 894z"/>
<path style="fill:#fbd55f; stroke:none;" d="M518.333 894.667L518.667 895.333L518.333 894.667z"/>
<path style="fill:#b3a47c; stroke:none;" d="M518 896L518 899L519 899L518 896M551.333 898.667L551.667 899.333L551.333 898.667z"/>
<path style="fill:#fbd55f; stroke:none;" d="M315 899L316 900L315 899z"/>
<path style="fill:#b3a47c; stroke:none;" d="M720.333 899.667L720.667 900.333L720.333 899.667z"/>
<path style="fill:#fbd55f; stroke:none;" d="M333 900L334 901L333 900z"/>
<path style="fill:#b3a47c; stroke:none;" d="M688 900L689 901L688 900M333 901L334 902L333 901z"/>
<path style="fill:#fbd55f; stroke:none;" d="M364 901L365 902L364 901z"/>
<path style="fill:#b3a47c; stroke:none;" d="M519 901L520 902L519 901M550 901L551 902L550 901M568 901L569 902L568 901z"/>
<path style="fill:#fbd55f; stroke:none;" d="M569 901L569 902L671 902L640 901L569 901z"/>
<path style="fill:#b3a47c; stroke:none;" d="M737.333 901.667L737.667 902.333L737.333 901.667M316.333 902.667L316.667 903.333L316.333 902.667z"/>
<path style="fill:#fbd55f; stroke:none;" d="M334 902L335 903L334 902z"/>
<path style="fill:#b3a47c; stroke:none;" d="M364 902L365 903L364 902M671.333 902.667L671.667 903.333L671.333 902.667z"/>
<path style="fill:#fbd55f; stroke:none;" d="M689 902L690 903L689 902z"/>
<path style="fill:#b3a47c; stroke:none;" d="M719 902L720 903L719 902M334 903L335 904L334 903z"/>
<path style="fill:#fbd55f; stroke:none;" d="M363 903L364 904L363 903z"/>
<path style="fill:#b3a47c; stroke:none;" d="M502.333 903.667L502.667 904.333L502.333 903.667M520 903L521 904L520 903M549 903L550 904L549 903z"/>
<path style="fill:#fbd55f; stroke:none;" d="M316 904L317 905L316 904z"/>
<path style="fill:#b3a47c; stroke:none;" d="M335 904L336 905L335 904z"/>
<path style="fill:#fbd55f; stroke:none;" d="M521 904L522 905L521 904z"/>
<path style="fill:#b3a47c; stroke:none;" d="M567.333 904.667L567.667 905.333L567.333 904.667M690 904L691 905L690 904M362 905L363 906L362 905M381 905L382 906L381 905z"/>
<path style="fill:#fbd55f; stroke:none;" d="M691 905L692 906L691 905z"/>
<path style="fill:#b3a47c; stroke:none;" d="M717 905L718 906L717 905M736 905L737 906L736 905M317 906L318 907L317 906M361 906L362 907L361 906M503.333 906.667L503.667 907.333L503.333 906.667M547 906L548 907L547 906M672 906L673 907L672 906M716 906L717 907L716 906z"/>
<path style="fill:#fbd55f; stroke:none;" d="M338 907L339 908L338 907z"/>
<path style="fill:#b3a47c; stroke:none;" d="M360 907L361 908L360 907M546 907L547 908L546 907M566 907L567 908L566 907z"/>
<path style="fill:#fbd55f; stroke:none;" d="M693 907L694 908L693 907z"/>
<path style="fill:#b3a47c; stroke:none;" d="M715 907L716 908L715 907M339 908L340 909L339 908M380 908L381 909L380 908M525 908L526 909L525 908z"/>
<path style="fill:#fbd55f; stroke:none;" d="M566 908L567 909L566 908z"/>
<path style="fill:#b3a47c; stroke:none;" d="M673 908L674 909L673 908M694 908L695 909L694 908M735 908L736 909L735 908M318 909L319 910L318 909M357 909L358 910L357 909M504 909L505 910L504 909M526 909L527 910L526 909M543 909L544 910L543 909M565 909L566 910L565 909z"/>
<path style="fill:#fbd55f; stroke:none;" d="M673 909L674 910L673 909M696 909L697 910L696 909z"/>
<path style="fill:#b3a47c; stroke:none;" d="M712 909L713 910L712 909M342 910L343 911L342 910M355 910L356 911L355 910M379 910L380 911L379 910M528 910L529 911L528 910M541 910L542 911L541 910z"/>
<path style="fill:#fbd55f; stroke:none;" d="M565 910L566 911L565 910z"/>
<path style="fill:#b3a47c; stroke:none;" d="M697 910L698 911L697 910z"/>
<path style="fill:#fbd55f; stroke:none;" d="M698 910L699 911L698 910z"/>
<path style="fill:#b3a47c; stroke:none;" d="M710 910L711 911L710 910M734 910L735 911L734 910z"/>
<path style="fill:#fbd55f; stroke:none;" d="M319 911L320 912L319 911z"/>
<path style="fill:#b3a47c; stroke:none;" d="M345 911L345 912L353 912L345 911M505 911L506 912L505 911M531 911L531 912L539 912L531 911M564 911L565 912L564 911z"/>
<path style="fill:#fbd55f; stroke:none;" d="M674 911L675 912L674 911z"/>
<path style="fill:#b3a47c; stroke:none;" d="M700 911L700 912L708 912L700 911M320 912L321 913L320 912z"/>
<path style="fill:#fbd55f; stroke:none;" d="M378 912L379 913L378 912z"/>
<path style="fill:#b3a47c; stroke:none;" d="M675 912L676 913L675 912M733 912L734 913L733 912M377 913L378 914L377 913z"/>
<path style="fill:#fbd55f; stroke:none;" d="M506 913L507 914L506 913z"/>
<path style="fill:#b3a47c; stroke:none;" d="M563 913L564 914L563 913M732 913L733 914L732 913M321 914L322 915L321 914M507 914L508 915L507 914M676 914L677 915L676 914M322 915L323 916L322 915z"/>
<path style="fill:#fbd55f; stroke:none;" d="M376 915L377 916L376 915z"/>
<path style="fill:#b3a47c; stroke:none;" d="M677 915L678 916L677 915M731 915L732 916L731 915M375 916L376 917L375 916M561 916L562 917L561 916M730 916L731 917L730 916M374 917L375 918L374 917M560 917L561 918L560 917M729 917L730 918L729 917M373 918L374 919L373 918M559 918L560 919L559 918M728 918L729 919L728 918M372 919L373 920L372 919M558 919L559 920L558 919M727 919L728 920L727 919M371 920L372 921L371 920z"/>
<path style="fill:#fbd55f; stroke:none;" d="M557 920L558 921L557 920z"/>
<path style="fill:#b3a47c; stroke:none;" d="M682 920L683 921L682 920M726 920L727 921L726 920M328 921L329 922L328 921M370 921L371 922L370 921M514 921L515 922L514 921M683 921L684 922L683 921M725 921L726 922L725 921M329 922L330 923L329 922M515 922L516 923L515 922M554 922L555 923L554 922M684 922L685 923L684 922M367 923L368 924L367 923z"/>
<path style="fill:#fbd55f; stroke:none;" d="M516 923L517 924L516 923z"/>
<path style="fill:#b3a47c; stroke:none;" d="M553 923L554 924L553 923M686 923L687 924L686 923M722 923L723 924L722 923M332 924L333 925L332 924M365 924L366 925L365 924M518 924L519 925L518 924M551 924L552 925L551 924M687 924L688 925L687 924M720 924L721 925L720 924M334 925L335 926L334 925M363 925L364 926L363 925M520 925L521 926L520 925M549 925L550 926L549 925M689.667 925.333L690.333 925.667L689.667 925.333M718 925L719 926L718 925M337 926L338 927L337 926M361 926L362 927L361 926z"/>
<path style="fill:#fbd55f; stroke:none;" d="M522 926L523 927L522 926z"/>
<path style="fill:#b3a47c; stroke:none;" d="M523 926L524 927L523 926M546.667 926.333L547.333 926.667L546.667 926.333M692 926L693 927L692 926M716 926L717 927L716 926M339.667 927.333L340.333 927.667L339.667 927.333M357.667 927.333L358.333 927.667L357.667 927.333M525.667 927.333L526.333 927.667L525.667 927.333M543.667 927.333L544.333 927.667L543.667 927.333z"/>
<path style="fill:#fbd55f; stroke:none;" d="M694 927L695 928L694 927z"/>
<path style="fill:#b3a47c; stroke:none;" d="M695 927L696 928L695 927M712.667 927.333L713.333 927.667L712.667 927.333z"/>
<path style="fill:#fbd55f; stroke:none;" d="M714 927L715 928L714 927M344 928L345 929L344 928z"/>
<path style="fill:#b3a47c; stroke:none;" d="M345 928L345 929L353 929L345 928z"/>
<path style="fill:#fbd55f; stroke:none;" d="M353 928L354 929L353 928M530 928L531 929L530 928z"/>
<path style="fill:#b3a47c; stroke:none;" d="M531 928L531 929L539 929L531 928z"/>
<path style="fill:#fbd55f; stroke:none;" d="M539 928L540 929L539 928M699 928L700 929L699 928z"/>
<path style="fill:#b3a47c; stroke:none;" d="M700 928L700 929L708 929L700 928z"/>
<path style="fill:#fbd55f; stroke:none;" d="M708 928L709 929L708 928z"/>
</svg>
